# xmcd
#
# Track frame offsets:
#	150
#	13680
#	22569
#	41698
#	57774
#	73647
#	87076
#	100725
#	113547
#	126486
#	144575
#	157160
#
# Disc length: 2324 seconds
#
# Revision: 1
# Processed by: cddbd v1.5.1PL2 Copyright (c) Steve Scherf et al.
# Submitted via: audiograbber 1.83.01
#
DISCID=9509120c
DTITLE=Mike Pollard - Rural Roots
DYEAR=2004
DGENRE=Country
TTITLE0=my dad and glen
TTITLE1=hey good lookin'
TTITLE2=when you say nothing at all
TTITLE3=walk back through the years
TTITLE4=what i can do
TTITLE5=if teardrops were whiskey
TTITLE6=folsom prison blues
TTITLE7=six feet of dirt
TTITLE8=i've found it in you
TTITLE9=i started loving you again
TTITLE10=blue collar redneck blues
TTITLE11=kendal
EXTD=
EXTT0=
EXTT1=
EXTT2=
EXTT3=
EXTT4=
EXTT5=
EXTT6=
EXTT7=
EXTT8=
EXTT9=
EXTT10=
EXTT11=
PLAYORDER=
